<?xml version="1.0" encoding="UTF-8"?>
<svg id="Layer_2" data-name="Layer 2" xmlns="http://www.w3.org/2000/svg" viewBox="0 0 48 48">
  <defs>
    <style>
      #Layer_1-2, #Layer_2 {
        fill-opacity:1;
        stroke:none;
      }
      .cls-1 {
        fill: #be1e2d;
        fill-opacity:1;
        stroke:none;
      }
    </style>
  </defs>
  <g id="Layer_1-2" data-name="Layer 1">
    <path class="cls-1" d="m45.33,14.63c-.02,3.92-1.13,7.56-2.9,10.99-3.34,6.5-8.25,11.58-14.39,15.46-3.32,2.1-6.94,3.54-10.86,4.03-5.17.65-9.86-.46-13.64-4.23-4.16-4.14-4.69-10.91-1.4-15.8,2.22-3.3,5.29-5.19,9.24-5.65,2.69-.31,4.91-1.45,6.53-3.67,1.05-1.45,1.42-3.13,1.63-4.84C20.17,5.65,24.45,1.13,29.73.23c4.51-.77,8.45.35,11.63,3.7,2.15,2.26,3.33,5.01,3.76,8.09.12.86.14,1.74.21,2.62Z"/>
  </g>
</svg>
